<svg width="297px" height="280px" viewBox="0 0 297 280" version="1.1" xmlns="http://www.w3.org/2000/svg" xmlns:xlink="http://www.w3.org/1999/xlink">

    <defs>

        <style>
            #Group {
            stroke-dasharray: 800;
            stroke-dashoffset: 0;
            -webkit-animation: dash 2s linear forwards;
            -o-animation: dash 2s linear forwards;
            -moz-animation: dash 2s linear forwards;
            animation; dash 2s linear forwards;
            }

            @-webkit-keyframes dash {
                from {
                    stroke-dashoffset: 900;
                }
                to {
                    stroke-dashoffset: 0;
                }
            }
        </style>
    </defs>

    <g id="Page-1" stroke="none" stroke-width="1" fill="none" fill-rule="evenodd">
        <g id="Desktop-HD" transform="translate(-474.000000, -112.000000)">
            <g id="noun_27493_cc" transform="translate(475.000000, 112.000000)">
                <g id="Group">
                    <path d="M243.5,278.5 L0.5,278.5" id="Line" stroke="#D1BAA7" stroke-width="3" stroke-linecap="square"></path>
                    <path d="M268.170205,78.5373367 L278.746142,78.5308556 L278.725446,59.9432107 L275.227729,59.9561728 L279.280803,0 L207.670738,0 L212.075654,60.0080211 L208.571038,59.995059 L208.581386,78.5729824 L218.053508,78.5729824 L192.217314,181.193893 L192,182.023467 L193.8006,184.969103 L194.128295,185.215383 C218.871021,204.091434 234.393434,265.833136 234.576254,268.756088 C234.576254,273.305784 238.529295,277.009702 243.36194,276.999981 C248.204933,276.999981 252.144176,273.296062 252.144176,268.804696 C252.385636,265.849338 268.811798,203.958573 293.382053,185.144091 L293.706299,184.897811 L295.5,181.935972 L268.170205,78.5373367 Z M274.234294,4.69875962 L270.460623,59.9561728 L216.84276,59.9918185 L212.996651,4.69875962 L274.234294,4.69875962 Z M213.624446,73.8482986 L213.620997,64.7229834 L273.703083,64.6938187 L273.709982,73.7964502 L213.624446,73.8482986 Z M236.921863,156.089554 C236.921863,152.573586 239.971155,149.699241 243.72068,149.699241 C247.473654,149.699241 250.519497,152.563864 250.540193,156.092795 C250.526396,159.612004 247.480553,162.486348 243.731028,162.486348 C239.981503,162.489589 236.935661,159.621725 236.921863,156.089554 Z M290.194784,182.10448 C264.296501,202.348032 247.601283,266.267366 247.608182,268.749607 C247.608182,269.968044 246.997634,271.05686 246.076637,271.789219 L246.004199,166.527281 C251.171438,165.532441 255.069288,161.222544 255.069288,156.079832 C255.06239,150.214484 249.967589,145.421749 243.706882,145.42823 C237.470322,145.447674 232.37897,150.230687 232.372071,156.099276 C232.389318,161.241987 236.294068,165.545403 241.475104,166.537003 L241.547542,272.336867 C240.116031,271.717927 239.115697,270.343945 239.119147,268.756088 C239.115697,266.147466 223.296634,202.435527 197.315564,182.16929 L196.829195,181.36564 L222.706782,78.5729824 L263.503133,78.5502988 L290.660457,181.310551 L290.194784,182.10448 Z" id="Shape" fill-opacity="0.6" fill="#B38E6D"></path>
                </g>
            </g>
        </g>
    </g>
</svg>
